<svg width="20" height="24" viewBox="0 0 20 24" fill="none" xmlns="http://www.w3.org/2000/svg">
<path fill-rule="evenodd" clip-rule="evenodd" d="M18 7H14V4C14 1.791 12.209 0 10 0C7.791 0 6 1.791 6 4V7H2L0 24H20L18 7ZM8.00891 4C8.00891 2.98514 9.02619 2 10.0168 2C11.0075 2 11.9917 2.99289 11.9917 4V7H8.00891V4ZM3.778 9L2.249 22H17.751L16.222 9H14V9.99796C14 10.5798 13.5111 11 13.0223 11C12.5336 11 12.0453 10.5505 12.0453 9.99796V9H8.01013V9.99796C8.01013 10.6427 7.50822 11 7.00586 11C6.5035 11 6 10.6074 6 9.99796V9H3.778Z" fill="#263635"/>
</svg>
