<svg width="24" height="24" viewBox="0 0 24 24" fill="none" xmlns="http://www.w3.org/2000/svg">
<path fill-rule="evenodd" clip-rule="evenodd" d="M0 12C0 5.373 5.373 0 12 0C18.627 0 24 5.373 24 12C24 18.627 18.627 24 12 24C5.373 24 0 18.627 0 12ZM17.882 17.064C18.964 17.314 19.492 17.719 19.753 18.305C21.155 16.583 22 14.389 22 12C22 6.486 17.514 2 12 2C6.486 2 2 6.486 2 12C2 14.391 2.846 16.587 4.251 18.31C4.51 17.722 5.034 17.314 6.118 17.064C6.16463 17.0532 6.21125 17.0425 6.25782 17.0318C8.45356 16.5261 10.5549 16.0422 9.511 14.119C6.356 8.299 8.612 5 12 5C15.322 5 17.634 8.177 14.489 14.119C13.4672 16.0462 15.5352 16.523 17.7946 17.0438C17.8237 17.0506 17.8528 17.0573 17.882 17.064Z" fill="#263635"/>
</svg>
